<svg width="192" height="192" viewBox="0 0 192 192" fill="none" xmlns="http://www.w3.org/2000/svg">
<g clip-path="url(#clip0_52_127)">
<path d="M145.897 150.697C145.25 151.344 144.372 151.707 143.457 151.707C142.542 151.707 141.665 151.344 141.018 150.697L138.51 148.189C117.291 167.222 86.2751 169.139 67.8323 150.697C67.8323 150.697 65.3928 148.257 67.8323 145.818C68.5593 145.091 70.2572 144.808 70.2572 144.808H70.2962L70.5304 144.798C72.0958 144.688 73.6466 144.425 75.1606 144.012C78.834 143.053 82.1938 141.153 84.909 138.499C88.0218 135.386 89.6172 131.712 90.4223 128.751C90.8346 127.237 91.0977 125.686 91.2078 124.121L91.2176 123.886V123.857C91.2176 123.857 91.5005 122.149 92.2275 121.423C92.9545 120.696 94.6524 120.413 94.6524 120.413H94.6914L94.9256 120.403C96.491 120.293 98.0418 120.03 99.5558 119.617C102.092 118.938 104.493 117.826 106.65 116.329L77.5904 87.2692L80.0299 84.8297L77.5904 87.2692L77.4001 87.079L77.0196 86.6496C75.2809 84.649 73.9485 82.329 73.0968 79.819C72.2085 77.2428 72.0116 74.4787 72.526 71.8027C73.1456 68.7728 74.7264 65.7381 77.5904 62.8741C80.4544 60.0101 83.4892 58.4195 86.519 57.8096C89.195 57.2946 91.9593 57.4915 94.5353 58.3805C97.2274 59.2955 99.6985 60.7629 101.79 62.6887L101.912 62.8106L101.961 62.8497L101.976 62.8643C101.976 62.8643 101.986 62.8741 99.5461 65.3136L101.986 62.8741L104.425 65.3136C105.072 65.9606 105.436 66.8381 105.436 67.7531C105.436 68.6681 105.072 69.5456 104.425 70.1926C103.778 70.8396 102.901 71.2031 101.986 71.2031C101.071 71.2031 100.193 70.8396 99.5461 70.1926L97.0773 67.7238L96.848 67.5238C95.5315 66.3781 94.0055 65.4983 92.3544 64.933C90.959 64.4646 89.4416 64.2646 87.8754 64.5817C86.3288 64.8891 84.4845 65.7381 82.4694 67.7531C80.4544 69.7681 79.6054 71.6124 79.2981 73.1591C78.9809 74.7252 79.181 76.2426 79.6445 77.6429C80.244 79.3902 81.1955 80.9959 82.4402 82.3609L111.529 111.45C113.026 109.292 114.139 106.892 114.817 104.356C115.249 102.766 115.515 101.136 115.613 99.4912V99.4522C115.613 99.4522 115.891 97.7592 116.623 97.0273C117.35 96.3003 119.048 96.0174 119.048 96.0174H119.087C120.731 95.9197 122.361 95.6532 123.951 95.2221C127.624 94.2626 130.984 92.3624 133.699 89.7088C136.812 86.5959 138.403 82.9269 139.213 79.9605C139.644 78.3705 139.91 76.7405 140.008 75.0961L140.008 75.057C140.008 75.057 140.286 73.364 141.018 72.6321C143.457 70.1926 145.897 72.6321 145.897 72.6321C164.34 91.0749 162.422 122.091 143.389 143.31L145.897 145.818C146.544 146.465 146.907 147.342 146.907 148.257C146.907 149.172 146.544 150.05 145.897 150.697V150.697ZM142.482 133.396C153.864 117.134 154.835 97.0566 145.507 83.005C144.159 87.3657 141.783 91.3383 138.578 94.5878C134.646 98.5203 130.138 100.589 126.512 101.667C130.317 105.641 133.617 110.069 136.339 114.85C139.393 120.266 141.828 126.585 142.482 133.396V133.396ZM121.429 106.341C120.141 111.108 117.645 115.462 114.183 118.983C110.663 122.445 106.308 124.941 101.542 126.228C105.121 129.674 109.115 132.662 113.432 135.123C120.077 138.87 127.708 141.27 135.568 140.368C136.475 132.513 134.075 124.882 130.333 118.241C127.871 113.923 124.882 109.927 121.433 106.346L121.429 106.341ZM128.601 147.277C121.79 146.623 115.466 144.193 110.051 141.139C104.85 138.211 100.351 134.64 96.8675 131.312C95.5442 135.859 93.1114 140.005 89.788 143.378C86.0311 147.135 81.7376 149.184 78.2052 150.306C92.2568 159.635 112.339 158.669 128.596 147.281L128.601 147.277Z" fill="#1E6170"/>
</g>
<defs>
<clipPath id="clip0_52_127">
<rect width="110.4" height="110.4" fill="white" transform="translate(180.129 106.864) rotate(135)"/>
</clipPath>
</defs>
</svg>
