<svg width="40" height="40" viewBox="0 0 40 40" fill="none" xmlns="http://www.w3.org/2000/svg">
<g clip-path="url(#clip0_52_128)">
<path d="M30.3952 31.3952C30.2604 31.5299 30.0776 31.6057 29.887 31.6057C29.6963 31.6057 29.5135 31.5299 29.3787 31.3952L28.8563 30.8727C24.4356 34.8379 17.974 35.2374 14.1317 31.3952C14.1317 31.3952 13.6235 30.8869 14.1317 30.3787C14.2832 30.2272 14.6369 30.1683 14.6369 30.1683H14.645L14.6938 30.1662C15.02 30.1433 15.343 30.0885 15.6585 30.0026C16.4237 29.8027 17.1237 29.4068 17.6894 28.854C18.3379 28.2055 18.6703 27.4401 18.838 26.8231C18.9239 26.5077 18.9787 26.1846 19.0016 25.8585L19.0037 25.8097V25.8036C19.0037 25.8036 19.0626 25.4478 19.2141 25.2964C19.3655 25.1449 19.7192 25.086 19.7192 25.086H19.7274L19.7762 25.0839C20.1023 25.061 20.4254 25.0062 20.7408 24.9203C21.2693 24.7788 21.7693 24.547 22.2187 24.2352L16.1647 18.1811L16.6729 17.6729L16.1647 18.1811L16.125 18.1415L16.0457 18.052C15.6835 17.6352 15.4059 17.1519 15.2285 16.629C15.0434 16.0923 15.0024 15.5164 15.1096 14.9589C15.2387 14.3277 15.568 13.6954 16.1647 13.0988C16.7613 12.5021 17.3936 12.1707 18.0248 12.0437C18.5823 11.9364 19.1582 11.9774 19.6949 12.1626C20.2557 12.3532 20.7705 12.6589 21.2063 13.0601L21.2317 13.0856L21.2419 13.0937L21.245 13.0967C21.245 13.0967 21.247 13.0988 20.7388 13.607L21.247 13.0988L21.7552 13.607C21.89 13.7418 21.9657 13.9246 21.9657 14.1152C21.9657 14.3059 21.89 14.4887 21.7552 14.6235C21.6204 14.7583 21.4376 14.834 21.247 14.834C21.0564 14.834 20.8736 14.7583 20.7388 14.6235L20.2244 14.1091L20.1767 14.0675C19.9024 13.8288 19.5845 13.6455 19.2405 13.5277C18.9498 13.4301 18.6337 13.3885 18.3074 13.4545C17.9852 13.5186 17.6009 13.6954 17.1811 14.1152C16.7613 14.535 16.5845 14.9193 16.5204 15.2415C16.4544 15.5678 16.496 15.8839 16.5926 16.1756C16.7175 16.5396 16.9157 16.8742 17.175 17.1585L23.2352 23.2187C23.5471 22.7692 23.7789 22.2692 23.9203 21.7408C24.0101 21.4095 24.0656 21.0699 24.086 20.7273V20.7192C24.086 20.7192 24.1439 20.3665 24.2964 20.214C24.4478 20.0626 24.8016 20.0036 24.8016 20.0036H24.8097C25.1523 19.9833 25.4919 19.9278 25.8231 19.8379C26.5884 19.6381 27.2884 19.2422 27.854 18.6893C28.5025 18.0408 28.8339 17.2764 29.0026 16.6584C29.0925 16.3272 29.148 15.9876 29.1683 15.645L29.1683 15.6369C29.1683 15.6369 29.2263 15.2842 29.3787 15.1317C29.887 14.6235 30.3952 15.1317 30.3952 15.1317C34.2374 18.9739 33.838 25.4356 29.8727 29.8562L30.3952 30.3787C30.53 30.5135 30.6057 30.6963 30.6057 30.8869C30.6057 31.0775 30.53 31.2604 30.3952 31.3952V31.3952ZM29.6837 27.7908C32.0551 24.4029 32.2574 20.2201 30.3139 17.2927C30.0332 18.2012 29.5382 19.0288 28.8705 19.7058C28.0512 20.5251 27.112 20.956 26.3568 21.1807C27.1494 22.0086 27.8369 22.9311 28.4039 23.9272C29.0402 25.0555 29.5475 26.3718 29.6837 27.7908V27.7908ZM25.2976 22.1545C25.0294 23.1476 24.5095 24.0547 23.7882 24.7881C23.0547 25.5094 22.1476 26.0293 21.1545 26.2976C21.9002 27.0155 22.7323 27.638 23.6316 28.1506C25.0161 28.9312 26.6058 29.4313 28.2433 29.2433C28.4324 27.6068 27.9323 26.017 27.1527 24.6336C26.6398 23.7339 26.017 22.9015 25.2986 22.1555L25.2976 22.1545ZM26.7918 30.6826C25.3728 30.5464 24.0555 30.0402 22.9272 29.4039C21.8437 28.794 20.9065 28.05 20.1807 27.3567C19.905 28.3039 19.3982 29.1677 18.7058 29.8705C17.9232 30.6531 17.0287 31.0801 16.2927 31.3138C19.2202 33.2573 23.4039 33.0561 26.7908 30.6836L26.7918 30.6826Z" fill="#1E6170"/>
</g>
<defs>
<clipPath id="clip0_52_128">
<rect width="23" height="23" fill="white" transform="translate(37.5269 22.2634) rotate(135)"/>
</clipPath>
</defs>
</svg>
